<?xml version="1.0" standalone="no"?>
<!DOCTYPE svg PUBLIC "-//W3C//DTD SVG 20010904//EN"
 "http://www.w3.org/TR/2001/REC-SVG-20010904/DTD/svg10.dtd">
<svg version="1.0" xmlns="http://www.w3.org/2000/svg"
 width="448.000000pt" height="448.000000pt" viewBox="0 0 448.000000 448.000000"
 preserveAspectRatio="xMidYMid meet">
<metadata>
Created by potrace 1.15, written by Peter Selinger 2001-2017
</metadata>
<g transform="translate(0.000000,448.000000) scale(0.100000,-0.100000)"
fill="#000000" stroke="none">
<path d="M868 4465 c-246 -34 -419 -116 -578 -275 -163 -163 -241 -330 -275
-588 -22 -163 -22 -2562 -1 -2723 35 -256 108 -417 263 -576 171 -174 336
-253 601 -288 168 -22 2556 -22 2724 0 258 34 425 112 588 275 163 163 241
330 275 588 22 168 22 2556 0 2724 -34 258 -112 425 -275 588 -161 161 -332
241 -587 275 -152 20 -2586 20 -2735 0z m167 -1140 c183 -48 327 -212 371
-425 21 -101 21 -340 0 -440 -46 -217 -185 -376 -371 -425 -73 -19 -213 -19
-281 -1 -189 50 -332 212 -379 429 -25 115 -17 394 14 492 62 194 187 323 358
370 67 18 216 18 288 0z m1089 -488 c98 -263 182 -474 186 -470 5 4 88 221
185 481 l178 472 148 0 149 0 0 -640 0 -640 -115 0 -115 0 0 263 c0 144 5 356
10 471 5 116 8 211 6 213 -1 2 -84 -209 -184 -469 l-181 -473 -84 -3 -84 -3
-183 480 c-101 265 -184 480 -185 478 -1 -1 4 -132 11 -292 7 -159 13 -374 13
-477 l1 -188 -115 0 -115 0 0 640 0 641 147 -3 147 -3 180 -478z m2006 393 l0
-90 -200 0 -200 0 0 -550 0 -550 -115 0 -115 0 0 550 0 550 -195 0 -195 0 0
90 0 90 510 0 510 0 0 -90z m-1720 -1895 l0 -375 -55 0 c-48 0 -55 2 -55 20 0
25 -4 25 -40 -2 -36 -26 -122 -35 -174 -18 -46 15 -101 79 -122 142 -23 71
-16 227 14 284 28 54 83 101 127 110 54 10 124 -1 156 -25 l29 -22 0 131 0
130 60 0 60 0 0 -375z m240 335 c42 -42 10 -110 -52 -110 -17 0 -40 7 -50 17
-22 20 -23 70 -1 95 22 24 77 24 103 -2z m-1740 -115 l0 -65 50 0 50 0 0 -45
0 -45 -51 0 -50 0 3 -165 c3 -183 6 -190 66 -181 l32 5 0 -49 c0 -34 -4 -50
-16 -54 -29 -11 -115 -6 -143 9 -52 27 -61 64 -61 259 l0 176 -45 0 -45 0 0
45 0 45 45 0 45 0 0 65 0 65 60 0 60 0 0 -65z m460 -114 c0 -54 -2 -59 -20
-54 -34 9 -91 -7 -116 -32 -24 -24 -24 -27 -24 -210 l0 -185 -60 0 -60 0 0
265 0 265 60 0 c53 0 60 -2 60 -20 0 -18 2 -18 36 5 25 17 51 25 80 25 l44 0
0 -59z m368 44 c40 -17 77 -48 95 -80 7 -12 14 -96 18 -215 3 -107 9 -203 13
-212 7 -16 1 -18 -57 -18 -57 0 -67 3 -72 20 -6 19 -7 19 -35 -2 -32 -23 -108
-34 -165 -24 -49 10 -111 71 -120 119 -12 61 3 108 45 148 45 43 100 59 201
59 l71 0 -7 38 c-4 20 -14 45 -22 54 -37 41 -127 29 -148 -20 -9 -19 -17 -22
-72 -22 -35 0 -63 4 -63 9 0 46 55 114 115 142 50 23 152 25 203 4z m1437 -27
c19 -20 38 -53 44 -75 6 -21 11 -125 11 -230 l0 -193 -65 0 -65 0 0 198 c0
177 -2 201 -17 215 -27 24 -68 30 -107 17 -63 -20 -66 -32 -66 -242 l0 -188
-60 0 -60 0 0 265 0 265 56 0 c47 0 57 -3 61 -20 6 -22 18 -26 29 -9 15 25 70
39 138 36 64 -3 70 -5 101 -39z m464 15 c28 -22 29 -22 34 -3 4 17 14 20 61
20 l56 0 0 -276 c0 -314 -4 -338 -65 -399 -68 -69 -194 -87 -290 -41 -89 41
-100 71 -46 120 20 18 21 18 50 -7 83 -70 221 -26 221 69 l0 34 -37 -20 c-50
-27 -131 -27 -183 0 -80 41 -120 128 -120 260 0 122 41 208 118 250 51 28 158
24 201 -7z m-979 -248 l0 -265 -60 0 -60 0 0 265 0 265 60 0 60 0 0 -265z"/>
<path d="M820 3147 c-99 -28 -159 -89 -203 -205 -20 -52 -22 -76 -21 -262 0
-231 9 -275 79 -370 94 -128 305 -142 412 -29 78 84 106 188 106 399 0 208
-26 305 -104 394 -58 67 -176 99 -269 73z"/>
<path d="M2138 1385 c-39 -22 -60 -69 -66 -146 -9 -128 56 -208 148 -180 63
19 71 39 68 176 -3 113 -4 119 -28 137 -35 26 -89 32 -122 13z"/>
<path d="M1606 1200 c-43 -13 -66 -39 -66 -74 0 -37 7 -49 39 -65 31 -17 83
-6 121 25 26 22 30 32 30 75 l0 49 -47 -1 c-27 0 -61 -5 -77 -9z"/>
<path d="M3513 1385 c-48 -21 -67 -66 -67 -160 -1 -97 18 -139 71 -162 44 -18
88 -11 120 19 22 20 23 29 23 144 0 132 -5 145 -57 165 -32 12 -52 11 -90 -6z"/>
</g>
</svg>
